<svg id="Layer_1" data-name="Layer 1" xmlns="http://www.w3.org/2000/svg" viewBox="0 0 270.98 236.2"><defs><style>.cls-1{fill:#21a37b;}.cls-2{fill:#34eba5;}.cls-3{fill:#1c777f;}.cls-4{fill:#188b80;}</style></defs><path class="cls-1" d="M.05,51.82q0-22.8,0-45.6C.08.14.15.07,6.17.06,32.91,0,59.65-.08,86.39.1,109,.25,128.51,19.31,128.79,42c.37,30.19.12,60.4.09,90.61,0,5.56-.28,5.79-6,5.79-27.32,0-54.64.16-82-.05C19.88,138.16.42,118.61.11,97.41c-.22-15.19,0-30.4,0-45.59Z"/><path class="cls-2" d="M270.92,51.2c0,14.62.15,29.24,0,43.86a44.22,44.22,0,0,1-34.22,42.49,35.14,35.14,0,0,1-8,.78q-40.11.09-80.21,0c-6.27,0-6.32-.06-6.33-6.46,0-30-.09-60,0-90,.09-22.27,19.3-41.59,41.7-41.76C210.77-.09,237.7,0,264.63.06c6,0,6.25.22,6.27,6.12C271,21.19,270.92,36.19,270.92,51.2Z"/><path class="cls-3" d="M128.9,183.91c0,8.27.09,16.54,0,24.8-.22,14.84-10,26.08-24.65,26.83-16.49.84-33,.45-49.57.63-3.34,0-4.82-1.32-4.8-4.82.11-18.07-.31-36.15.2-54.21.41-14.86,11.91-25.41,26.62-25.47,15.19-.06,30.38,0,45.57,0,6.58,0,6.62.05,6.64,6.86C128.93,167,128.9,175.45,128.9,183.91Z"/><path class="cls-4" d="M142.11,184.29c0-9,.12-18.09-.05-27.13-.07-3.74.81-5.6,5.07-5.55,16.36.19,32.72-.08,49.08.15,11.8.16,22.47,10.08,23.93,21.91a107.08,107.08,0,0,1,.7,12.66c.08,14.63,0,29.26,0,43.89,0,3.46-.55,6.05-4.93,6-16.74-.26-33.49.09-50.2-.71-13.75-.65-23.5-11.92-23.62-25.79C142.06,201.23,142.11,192.76,142.11,184.29Z"/></svg>