<?xml version="1.0" standalone="no"?>
<!DOCTYPE svg PUBLIC "-//W3C//DTD SVG 20010904//EN"
 "http://www.w3.org/TR/2001/REC-SVG-20010904/DTD/svg10.dtd">
<svg version="1.0" xmlns="http://www.w3.org/2000/svg"
 width="1084.000000pt" height="1084.000000pt" viewBox="0 0 1084.000000 1084.000000"
 preserveAspectRatio="xMidYMid meet">
<metadata>
Created by potrace 1.11, written by Peter Selinger 2001-2013
</metadata>
<g transform="translate(0.000000,1084.000000) scale(0.100000,-0.100000)"
fill="#000000" stroke="none">
<path d="M68 10124 c-24 -10 -41 -26 -50 -47 -11 -26 -13 -370 -13 -1967 0
-1064 4 -1964 8 -2000 8 -74 12 -96 27 -161 6 -26 12 -53 13 -60 2 -8 6 -20
10 -26 5 -7 5 -17 2 -23 -3 -6 -1 -10 6 -10 7 0 10 -2 7 -5 -3 -3 7 -38 22
-78 15 -40 34 -88 41 -107 8 -19 16 -37 19 -40 3 -3 17 -30 33 -60 29 -59 59
-112 67 -120 3 -3 22 -31 43 -62 21 -31 46 -66 55 -76 9 -11 33 -40 52 -63 44
-54 163 -173 220 -219 23 -19 50 -42 60 -50 9 -8 24 -19 33 -25 8 -5 46 -31
84 -56 80 -54 275 -155 315 -163 7 -2 26 -8 41 -14 15 -7 40 -15 55 -18 15 -4
33 -11 40 -17 6 -5 12 -7 12 -4 0 3 21 0 48 -8 26 -7 69 -16 95 -20 27 -3 59
-9 70 -12 12 -2 214 -6 449 -8 234 -1 431 -6 436 -9 6 -3 13 -3 16 2 4 6 60 8
92 1 5 -1 14 0 19 1 25 5 144 2 153 -4 6 -3 13 -3 15 1 4 7 101 9 117 3 3 -2
10 -1 15 0 6 1 40 1 78 1 87 -2 80 -2 170 1 44 2 84 0 90 -4 6 -4 15 -4 20 -1
15 9 87 9 87 0 0 -5 4 -5 10 -2 16 10 81 12 86 3 3 -5 10 -6 15 -3 15 10 90
11 95 3 3 -5 11 -5 17 -1 16 10 106 10 134 1 12 -4 24 -4 27 0 4 6 103 7 131
2 6 -1 12 -2 15 -1 16 7 203 5 207 -2 2 -4 9 -4 16 0 14 9 140 8 155 -1 7 -4
17 -4 23 0 7 4 210 8 453 8 484 2 486 2 516 61 12 26 15 164 16 963 1 513 4
938 7 946 3 7 2 19 -3 26 -4 7 -4 26 0 41 6 19 5 29 -2 29 -7 0 -7 4 1 13 6 8
8 16 5 19 -5 6 -7 81 -2 118 1 9 -2 28 -6 44 -4 15 -3 25 2 22 4 -2 6 10 5 27
-8 67 -8 129 0 134 4 2 5 9 1 14 -3 6 -6 34 -5 62 1 29 1 63 0 77 -1 30 -1 48
1 75 1 11 -1 37 -3 58 -3 20 -2 39 2 42 6 3 7 50 1 50 -6 0 -5 65 1 93 4 17 4
32 0 32 -3 0 -6 204 -7 453 -1 445 -6 608 -23 697 -19 99 -30 146 -41 175 -6
17 -10 30 -9 30 7 0 -14 58 -61 165 -17 41 -34 84 -38 95 -3 11 -8 22 -12 25
-3 3 -24 37 -45 75 -21 39 -42 72 -47 73 -4 2 -8 10 -8 17 0 7 -3 15 -8 17 -4
2 -16 17 -27 34 -62 97 -271 311 -375 384 -19 13 -41 30 -48 37 -8 8 -28 21
-45 29 -18 9 -39 22 -47 29 -47 39 -323 165 -361 165 -10 0 -20 4 -23 9 -3 5
-18 11 -33 14 -16 3 -39 8 -53 11 -33 9 -153 33 -210 42 -25 4 -830 9 -1790
10 -1537 2 -1749 1 -1782 -12z"/>
<path d="M7258 10135 c-2 -2 -30 -6 -63 -10 -121 -15 -162 -23 -242 -46 -37
-11 -75 -22 -83 -24 -31 -7 -148 -54 -191 -76 -24 -13 -46 -23 -49 -24 -11 -1
-146 -80 -158 -92 -7 -7 -17 -13 -22 -13 -5 0 -15 -6 -22 -12 -7 -7 -31 -26
-53 -43 -71 -52 -88 -68 -180 -161 -114 -114 -145 -149 -145 -164 0 -6 -4 -8
-10 -5 -5 3 -10 0 -10 -9 0 -8 -3 -16 -7 -18 -5 -1 -26 -30 -48 -63 -156 -235
-256 -507 -280 -765 -4 -41 -8 -937 -8 -1990 -1 -1825 0 -1917 17 -1953 15
-30 27 -40 61 -50 34 -9 418 -12 1787 -11 958 0 1761 4 1783 7 42 8 71 13 115
22 14 2 36 7 50 9 14 2 44 11 68 20 23 8 43 15 45 15 3 0 32 9 55 18 9 3 19 7
22 8 19 7 49 18 70 28 14 6 27 11 30 12 16 4 89 42 113 58 15 10 27 16 27 13
0 -5 95 55 117 74 7 5 16 10 21 10 5 0 17 9 27 20 10 11 24 20 31 20 7 0 14 3
16 8 2 4 27 28 57 52 57 48 134 122 191 186 53 58 140 172 140 183 0 5 4 11 8
13 15 6 107 171 149 268 23 52 53 131 66 175 22 69 28 93 43 150 1 6 5 26 8
45 4 19 8 46 11 60 3 14 8 48 12 75 10 73 12 3829 2 3884 -9 46 -41 84 -77 91
-21 4 -3490 9 -3494 5z"/>
<path d="M3077 4074 c-1 -1 -42 -4 -92 -7 -98 -7 -122 -10 -205 -33 -30 -8
-63 -17 -73 -19 -9 -2 -23 -7 -30 -12 -6 -4 -16 -8 -22 -9 -36 -6 -199 -96
-255 -141 -28 -23 -155 -148 -175 -173 -80 -100 -149 -238 -184 -370 -28 -108
-32 -138 -37 -300 -3 -80 -6 -156 -7 -170 -2 -14 2 -31 7 -37 5 -8 5 -13 -1
-13 -13 0 -12 -1913 2 -1922 7 -5 6 -8 -1 -8 -13 0 -11 -33 4 -71 14 -36 57
-77 90 -86 33 -10 1362 -8 1717 1 400 11 462 16 557 42 29 8 60 17 69 19 36 8
155 59 181 76 14 11 29 19 33 19 3 0 27 14 53 32 222 153 372 393 429 689 16
87 18 176 18 1244 0 1278 4 1193 -68 1229 -37 17 -84 18 -1024 20 -541 0 -985
0 -986 0z"/>
<path d="M5818 4069 c-55 -9 -105 -45 -119 -87 -10 -29 -13 -287 -14 -1172 0
-624 3 -1162 7 -1195 5 -33 17 -96 29 -140 21 -84 87 -248 101 -253 4 -2 8 -8
8 -14 0 -5 12 -25 26 -44 15 -19 24 -34 20 -34 -16 0 165 -186 214 -220 19
-13 37 -27 40 -30 28 -30 254 -130 295 -130 12 0 25 -3 29 -7 6 -7 13 -8 96
-18 140 -16 530 -25 1379 -30 845 -6 825 -7 869 60 12 19 26 61 30 93 9 67 8
1970 -2 2118 -3 56 -8 117 -10 135 -3 19 -8 61 -11 93 -3 32 -7 62 -10 66 -2
3 -7 20 -10 36 -8 38 -13 58 -15 62 -2 1 -3 5 -4 10 -6 29 -41 112 -48 112 -4
0 -7 3 -6 8 3 12 -48 104 -89 158 -195 260 -456 405 -753 420 -144 8 -2009 10
-2052 3z"/>
</g>
</svg>
