<?xml version="1.0" standalone="no"?>
<!DOCTYPE svg PUBLIC "-//W3C//DTD SVG 20010904//EN"
 "http://www.w3.org/TR/2001/REC-SVG-20010904/DTD/svg10.dtd">
<svg version="1.0" xmlns="http://www.w3.org/2000/svg"
 width="509.000000pt" height="509.000000pt" viewBox="0 0 509.000000 509.000000"
 preserveAspectRatio="xMidYMid meet">
<metadata>
Created by potrace 1.11, written by Peter Selinger 2001-2013
</metadata>
<g transform="translate(0.000000,509.000000) scale(0.100000,-0.100000)"
fill="#000000" stroke="none">
<path d="M1109 4126 c-2 -2 -24 -6 -49 -9 -25 -4 -56 -9 -70 -12 -14 -3 -36
-7 -50 -10 -14 -2 -56 -15 -95 -28 -240 -83 -426 -230 -571 -452 -141 -217
-225 -477 -264 -820 -10 -95 -10 -420 2 -525 30 -282 115 -553 239 -760 135
-226 386 -417 637 -486 153 -43 213 -49 437 -48 406 1 767 102 902 251 56 62
77 118 77 208 0 123 -52 218 -144 265 -89 45 -177 43 -314 -6 -279 -101 -341
-114 -521 -110 -110 2 -142 7 -208 29 -259 89 -410 334 -443 717 -6 79 -6 334
0 385 2 17 7 55 10 85 3 30 8 64 10 75 74 353 202 541 421 619 60 22 248 31
315 15 25 -6 54 -12 64 -15 31 -6 140 -43 155 -53 12 -8 27 -74 47 -204 3 -23
9 -48 14 -57 4 -8 8 -17 7 -20 0 -3 8 -23 18 -44 35 -74 125 -145 206 -162 48
-10 131 -5 177 10 122 41 192 161 186 320 -7 183 -20 282 -49 367 -53 157
-157 266 -331 345 -79 36 -245 89 -311 99 -21 3 -76 12 -122 19 -74 12 -372
21 -382 12z"/>
<path d="M2985 4091 c-97 -33 -161 -86 -207 -174 l-23 -42 0 -1320 0 -1320 28
-56 c32 -66 99 -132 165 -162 66 -30 207 -30 272 0 91 42 179 148 194 233 3
14 5 352 5 753 1 400 5 727 10 727 6 0 344 -551 478 -781 12 -20 41 -68 64
-106 23 -37 49 -81 59 -98 113 -194 350 -579 376 -611 170 -210 539 -185 651
44 l28 57 0 1315 0 1315 -29 57 c-57 116 -158 180 -291 184 -70 2 -88 -1 -140
-25 -91 -42 -170 -134 -192 -222 -3 -13 -6 -362 -7 -776 0 -413 -4 -754 -7
-758 -4 -3 -39 49 -79 117 -142 238 -228 385 -330 558 -57 96 -122 207 -145
245 -23 39 -87 147 -142 240 -55 94 -139 236 -187 317 -93 156 -137 210 -210
253 -94 55 -241 71 -341 36z"/>
</g>
</svg>
